<?xml version="1.0" standalone="no"?>
<!DOCTYPE svg PUBLIC "-//W3C//DTD SVG 20010904//EN"
 "http://www.w3.org/TR/2001/REC-SVG-20010904/DTD/svg10.dtd">
<svg version="1.0" xmlns="http://www.w3.org/2000/svg"
 width="192.000000pt" height="192.000000pt" viewBox="0 0 192.000000 192.000000"
 preserveAspectRatio="xMidYMid meet">
<metadata>
Created by potrace 1.11, written by Peter Selinger 2001-2013
</metadata>
<g transform="translate(0.000000,192.000000) scale(0.100000,-0.100000)"
fill="#000000" stroke="none">
<path d="M614 1678 c-26 -46 -166 -289 -310 -540 l-262 -457 146 -261 147
-260 625 0 625 0 75 132 c41 72 89 157 106 187 17 31 49 88 72 128 l40 72
-245 428 c-135 235 -254 444 -265 463 -11 19 -41 70 -65 113 l-45 77 -298 0
-298 0 -48 -82z m441 -595 c50 -86 99 -173 110 -192 11 -20 40 -68 63 -108 23
-39 45 -79 48 -87 6 -14 -28 -16 -315 -16 -177 0 -321 3 -321 7 0 10 314 552
320 552 3 0 46 -70 95 -156z"/>
</g>
</svg>
