<?xml version="1.0" standalone="no"?>
<!DOCTYPE svg PUBLIC "-//W3C//DTD SVG 20010904//EN"
 "http://www.w3.org/TR/2001/REC-SVG-20010904/DTD/svg10.dtd">
<svg version="1.0" xmlns="http://www.w3.org/2000/svg"
 width="180.000000pt" height="180.000000pt" viewBox="0 0 180.000000 180.000000"
 preserveAspectRatio="xMidYMid meet">
<metadata>
Created by potrace 1.11, written by Peter Selinger 2001-2013
</metadata>
<g transform="translate(0.000000,180.000000) scale(0.100000,-0.100000)"
fill="#000000" stroke="none">
<path d="M958 1324 c-90 -21 -174 -69 -242 -137 l-61 -62 58 -3 c53 -3 61 0
95 29 20 18 66 46 102 63 59 28 74 31 165 31 114 -1 160 -16 252 -86 50 -37
57 -40 109 -37 l56 3 -61 62 c-125 126 -305 178 -473 137z"/>
<path d="M1560 1185 c-7 -9 -10 -18 -6 -22 3 -3 6 -1 6 6 0 6 10 16 23 21 15
6 17 9 6 9 -9 1 -22 -6 -29 -14z"/>
<path d="M1620 1189 c8 -8 21 -21 29 -29 12 -12 11 -10 0 9 -9 14 -22 27 -30
29 -11 3 -11 2 1 -9z"/>
<path d="M1055 1165 c-37 -22 -40 -28 -45 -77 l-5 -53 -42 -3 -43 -3 0 -45 0
-44 45 0 45 0 0 -165 c0 -177 7 -207 52 -239 26 -18 96 -21 131 -5 17 8 27 24
34 56 9 39 9 43 -6 37 -9 -4 -31 -9 -50 -12 -55 -7 -61 9 -61 180 l0 148 50 0
50 0 0 45 0 45 -50 0 -50 0 0 80 c0 44 -3 80 -7 79 -5 0 -26 -12 -48 -24z"/>
<path d="M1581 1148 c0 -18 3 -27 6 -20 4 10 8 10 20 0 13 -10 14 -8 11 17 -2
19 -10 31 -20 33 -14 3 -18 -3 -17 -30z m29 12 c0 -5 -4 -10 -10 -10 -5 0 -10
5 -10 10 0 6 5 10 10 10 6 0 10 -4 10 -10z"/>
<path d="M1564 1113 c11 -13 26 -23 35 -22 14 0 14 1 1 6 -8 3 -24 13 -35 22
-20 16 -20 16 -1 -6z"/>
<path d="M1630 1115 c-7 -9 -8 -15 -2 -15 5 0 12 7 16 15 3 8 4 15 2 15 -2 0
-9 -7 -16 -15z"/>
<path d="M382 1025 c-90 -28 -146 -93 -163 -193 -21 -118 23 -223 117 -278 65
-38 182 -46 240 -16 21 11 49 31 61 44 l22 23 -28 34 -27 33 -38 -26 c-58 -39
-97 -43 -153 -15 -65 33 -93 77 -93 148 0 85 39 138 121 161 40 12 95 -1 134
-32 l28 -22 28 34 29 34 -23 24 c-52 57 -159 77 -255 47z"/>
<path d="M720 780 l0 -250 55 0 55 0 0 250 0 250 -55 0 -55 0 0 -250z"/>
<path d="M1320 780 l0 -250 55 0 55 0 0 250 0 250 -55 0 -55 0 0 -250z"/>
</g>
</svg>
